<svg width="249" height="80" viewBox="0 0 249 80" fill="none" xmlns="http://www.w3.org/2000/svg">
<g clip-path="url(#clip0_369_136)">
<path d="M115.05 51.2333V52.2499C114.712 52.2679 114.45 52.2931 114.182 52.2931C110.836 52.2931 107.491 52.2787 104.144 52.3112C103.471 52.3172 103.321 52.0937 103.323 51.4568C103.338 41.7582 103.342 32.0607 103.334 22.3645C103.334 20.0273 102.853 17.8332 101.533 15.8758C100.103 13.7609 98.119 12.5893 95.5411 12.5845C85.4046 12.5709 75.2682 12.5709 65.1317 12.5845C61.7925 12.5845 59.1281 14.6273 58.1087 18.0699C57.6902 19.5184 57.4736 21.0177 57.4651 22.5255C57.4075 32.0747 57.4339 41.6216 57.4327 51.1708C57.4327 52.2871 57.4327 52.2871 56.3052 52.2871H45.7882C45.7605 52.0228 45.7221 51.8317 45.7221 51.6407C45.7293 41.5711 45.6345 31.5004 45.7882 21.4332C45.8758 15.7219 47.8858 10.6559 52.158 6.693C55.9378 3.18669 60.5029 1.45516 65.606 1.40589C75.393 1.31697 85.1849 1.26771 94.9719 1.41791C101.516 1.51764 106.986 4.13476 110.991 9.44951C113.219 12.4079 114.396 15.8109 114.822 19.4662C114.976 20.8952 115.047 22.3319 115.035 23.7692C115.057 32.9287 115.062 42.0834 115.05 51.2333Z" fill="#FFCC1C"/>
<path d="M85.2138 24.0648V52.3027C85.0325 52.1826 84.8968 52.1033 84.7683 52.0107C83.4187 51.0495 82.0643 50.099 80.7279 49.1209C80.4554 48.9214 80.2813 48.943 80.0207 49.1329C78.6999 50.0942 77.3539 51.0434 76.0175 51.9951C75.8866 52.0889 75.7474 52.173 75.5372 52.31V24.0648H85.2138Z" fill="white"/>
<path d="M25.1815 22.8307C28.6924 23.8497 31.5161 25.6825 33.6525 28.3293C35.789 30.9761 36.8588 33.9044 36.862 37.1143V37.19C36.862 41.1105 35.4376 44.4454 32.5887 47.1947C28.9761 50.6577 24.6535 52.3632 19.6209 52.3112H17.2555C14.2033 52.3112 11.38 51.6619 8.78567 50.3633C6.19132 49.0648 4.12768 47.3212 2.59477 45.1327C1.42447 43.4504 1.32281 41.7065 2.28978 39.9009C3.25676 38.0952 4.75726 37.1916 6.79127 37.19C8.52031 37.2413 9.89393 37.9795 10.9121 39.4046C11.5221 40.2209 12.3998 40.883 13.5453 41.3909C14.711 41.9045 15.9723 42.1646 17.2459 42.1539H19.6113C21.8527 42.206 23.7858 41.4678 25.4108 39.9393C25.8079 39.5979 26.1287 39.1767 26.3524 38.703C26.576 38.2293 26.6974 37.7138 26.7088 37.19V37.1143C26.7088 36.1466 26.3017 35.243 25.4876 34.4035C24.6736 33.5639 23.6049 32.9655 22.2817 32.6083L11.6758 29.4011C8.1649 28.3317 5.34121 26.486 3.20473 23.8641C1.06825 21.2422 1.60204e-05 18.3274 1.60204e-05 15.1199C-0.0122984 12.4098 0.799271 9.75991 2.32701 7.52211C3.87833 5.2062 5.97679 3.37333 8.62237 2.02352C11.2679 0.673703 14.1681 -0.000804179 17.3228 -3.10199e-06H19.6113C22.6636 -3.10199e-06 25.4872 0.64927 28.0824 1.94782C30.6775 3.24636 32.7376 4.98991 34.2625 7.17845C35.432 8.86071 35.5465 10.6043 34.6059 12.4091C33.6653 14.2139 32.176 15.1175 30.138 15.1199C28.357 15.0711 26.9581 14.3329 25.9415 12.9054C25.3316 12.0915 24.4538 11.4298 23.3083 10.9203C22.1425 10.4074 20.8813 10.1473 19.6077 10.1573H17.3228C15.388 10.1573 13.707 10.6535 12.2798 11.6461C10.8525 12.6386 10.1425 13.7966 10.1497 15.1199C10.1497 16.0884 10.5563 16.9925 11.3696 17.832C12.1829 18.6715 13.2515 19.2695 14.5755 19.626L25.1815 22.8307Z" fill="#FFCC1C"/>
<path d="M165.819 52.3112C166.379 53.9389 166.15 55.4534 165.132 56.8545C164.114 58.2556 162.742 58.9557 161.016 58.9549C159.96 58.959 158.93 58.6242 158.078 57.9996C157.21 57.3891 156.557 56.5193 156.213 55.5147L143.084 16.0368L132.096 48.8745C131.897 49.3738 131.641 49.848 131.332 50.2876C131.036 50.7117 130.66 51.0745 130.226 51.3559C129.785 51.6406 129.311 51.8714 128.814 52.0432C128.324 52.2186 127.808 52.3093 127.288 52.3112C125.506 52.3112 124.12 51.611 123.129 50.2107C122.138 48.8104 121.898 47.2704 122.408 45.5905L136.597 3.43662C136.895 2.42885 137.528 1.55306 138.391 0.954082C139.268 0.322275 140.324 -0.0120582 141.405 -1.62495e-06H144.767C145.848 -0.0118935 146.904 0.322411 147.782 0.954082C148.658 1.57246 149.292 2.47702 149.575 3.51232L165.819 52.3112Z" fill="#FFCC1C"/>
<path d="M208.71 50.7082C209.98 52.3905 210.158 54.1725 209.243 56.0542C208.803 56.8998 208.145 57.6119 207.336 58.1162C206.537 58.6203 205.61 58.8851 204.665 58.8792C202.984 58.8792 201.636 58.1919 200.621 56.8172L185.972 37.3438H181.622V47.1971C181.626 47.867 181.498 48.5312 181.245 49.1514C180.992 49.7717 180.619 50.3358 180.148 50.8113C179.676 51.2867 179.115 51.6643 178.498 51.9221C177.88 52.1799 177.217 52.3129 176.548 52.3136C175.88 52.3246 175.217 52.1985 174.599 51.9431C173.982 51.6876 173.424 51.3082 172.959 50.8284C172.476 50.3573 172.096 49.7925 171.84 49.1686C171.584 48.5447 171.458 47.875 171.471 47.2007V5.11648C171.458 4.4422 171.584 3.77248 171.84 3.14859C172.096 2.52469 172.476 1.95983 172.959 1.4888C173.429 1.00599 173.994 0.624785 174.617 0.368725C175.241 0.112664 175.91 -0.0128255 176.584 9.71486e-08H189.551C194.74 9.71486e-08 199.204 1.80723 202.943 5.42169C206.682 9.03615 208.577 13.4144 208.628 18.5566C208.633 20.9746 208.18 23.3716 207.293 25.6209C206.412 27.872 205.089 29.9235 203.402 31.6542C201.72 33.3942 199.709 34.7829 197.487 35.7397L208.71 50.7082ZM189.937 27.1866C192.277 27.1866 194.286 26.3591 195.966 24.704C197.645 23.049 198.485 21.0511 198.487 18.7104C198.504 17.1947 198.109 15.7031 197.343 14.3954C196.582 13.107 195.5 12.0387 194.202 11.2957C192.904 10.5526 191.436 10.1603 189.94 10.1573H181.623V27.1866H189.937Z" fill="#FFCC1C"/>
<path d="M243.887 -2.64728e-06C244.561 -0.012757 245.23 0.112765 245.854 0.368821C246.477 0.624878 247.042 1.00604 247.512 1.4888C247.992 1.95381 248.371 2.51214 248.627 3.12941C248.883 3.74668 249.01 4.40983 249 5.07803C249.01 5.74627 248.884 6.40953 248.628 7.02685C248.372 7.64417 247.992 8.20246 247.512 8.66725C247.042 9.15017 246.477 9.53152 245.854 9.78778C245.231 10.044 244.561 10.1698 243.887 10.1573H234.5V53.7615C234.5 55.1185 233.962 56.4199 233.003 57.3794C232.044 58.3389 230.744 58.878 229.388 58.878C228.032 58.878 226.731 58.3389 225.772 57.3794C224.814 56.4199 224.275 55.1185 224.275 53.7615V10.1573H214.889C214.215 10.1696 213.546 10.0438 212.922 9.78758C212.299 9.53133 211.735 9.15006 211.264 8.66725C210.784 8.20246 210.404 7.64417 210.149 7.02685C209.893 6.40953 209.766 5.74627 209.776 5.07803C209.766 4.40983 209.893 3.74668 210.149 3.12941C210.405 2.51214 210.784 1.95381 211.264 1.4888C211.735 1.00601 212.299 0.624833 212.923 0.36878C213.547 0.112727 214.216 -0.0127796 214.89 -2.64728e-06H243.887Z" fill="#FFCC1C"/>
<path d="M55.6726 68.8334H53.456V72.2171C53.456 72.6978 53.342 73.0679 53.1138 73.3178C53.0016 73.4363 52.8665 73.5308 52.7166 73.5953C52.5667 73.6598 52.4053 73.6931 52.2421 73.6931C52.079 73.6931 51.9175 73.6598 51.7676 73.5953C51.6178 73.5308 51.4826 73.4363 51.3704 73.3178C51.1471 73.0703 51.0354 72.7074 51.0354 72.2291V63.0128C51.0354 62.48 51.1579 62.0995 51.4028 61.8712C51.6478 61.6429 52.036 61.5288 52.5675 61.5288H55.6726C56.5907 61.5288 57.2971 61.5997 57.7918 61.7414C58.2607 61.8668 58.6945 62.0983 59.0598 62.418C59.4167 62.7353 59.6943 63.1321 59.8703 63.5763C60.0627 64.0704 60.1569 64.5974 60.1476 65.1276C60.1476 66.3444 59.7726 67.2657 59.0226 67.8913C58.2725 68.517 57.1559 68.831 55.6726 68.8334ZM55.0866 63.3528H53.456V67.0057H55.0866C55.5696 67.0176 56.0516 66.9573 56.5167 66.8267C56.8648 66.7312 57.1725 66.525 57.3932 66.2391C57.6066 65.9251 57.7124 65.5502 57.6946 65.1709C57.7143 64.6971 57.5474 64.2346 57.2299 63.8827C56.8817 63.5294 56.1673 63.3528 55.0866 63.3528Z" fill="white"/>
<path d="M68.758 68.372H67.9103V72.2171C67.9103 72.7218 67.799 73.0939 67.5765 73.3334C67.4653 73.4523 67.33 73.546 67.1796 73.6082C67.0293 73.6704 66.8673 73.6996 66.7047 73.6939C66.5366 73.7035 66.3686 73.6747 66.2132 73.6097C66.0578 73.5448 65.9192 73.4454 65.8078 73.319C65.5965 73.0691 65.4896 72.7014 65.4896 72.2183V63.0176C65.4896 62.4961 65.6065 62.1183 65.8402 61.8844C66.074 61.6505 66.4518 61.5336 66.9737 61.5336H70.9097C71.3753 61.5293 71.8408 61.5526 72.3037 61.6033C72.6636 61.642 73.0153 61.7369 73.3459 61.8844C73.7214 62.0419 74.0612 62.2737 74.3449 62.5659C74.6286 62.8581 74.8504 63.2046 74.9969 63.5847C75.1467 63.9792 75.2224 64.398 75.2202 64.82C75.2202 65.7124 74.9693 66.4249 74.4674 66.9577C73.9655 67.4904 73.205 67.8681 72.186 68.0908C72.6538 68.3511 73.0708 68.6938 73.4168 69.1025C73.8055 69.5462 74.1557 70.0221 74.4638 70.5253C74.7366 70.9614 74.9774 71.4168 75.1842 71.8879C75.3555 72.2932 75.4412 72.5736 75.4412 72.729C75.4381 72.8971 75.3855 73.0606 75.2899 73.1988C75.1869 73.353 75.0453 73.4773 74.8792 73.5593C74.6928 73.6517 74.4869 73.6979 74.2789 73.6939C74.0365 73.7022 73.7975 73.6355 73.5945 73.5029C73.4061 73.3737 73.2433 73.2107 73.1142 73.0222C72.9805 72.8259 72.8 72.5376 72.5727 72.157L71.5941 70.5349C71.3251 70.0562 71.0128 69.6033 70.6611 69.1818C70.4337 68.9076 70.146 68.6897 69.8206 68.545C69.4805 68.4207 69.1199 68.362 68.758 68.372ZM70.1436 63.348H67.9103V66.6344H70.0788C70.5718 66.644 71.0642 66.5931 71.5448 66.483C71.8938 66.4107 72.2115 66.2314 72.4538 65.9699C72.6627 65.7296 72.7684 65.3944 72.7684 64.9702C72.774 64.6593 72.6857 64.354 72.515 64.0942C72.3439 63.8386 72.0994 63.6408 71.8138 63.527C71.532 63.4117 70.9753 63.3536 70.1436 63.3528V63.348Z" fill="white"/>
<path d="M88.721 63.4009H83.2698V66.3376H88.29C88.659 66.3376 88.9348 66.4205 89.1173 66.5864C89.2078 66.6692 89.2791 66.7708 89.3262 66.8842C89.3733 66.9975 89.395 67.1198 89.3898 67.2424C89.3944 67.3659 89.3727 67.489 89.3264 67.6035C89.28 67.718 89.21 67.8214 89.1209 67.9069C88.9416 68.0784 88.6646 68.1641 88.29 68.1641H83.2698V71.5659H88.9131C89.2934 71.5659 89.5803 71.654 89.7741 71.8302C89.8702 71.92 89.9459 72.0295 89.9958 72.1512C90.0458 72.273 90.0688 72.4041 90.0634 72.5356C90.0678 72.6646 90.0442 72.7931 89.9943 72.9122C89.9443 73.0312 89.8692 73.1381 89.7741 73.2253C89.5803 73.4023 89.2934 73.4905 88.9131 73.4897H82.332C81.8045 73.4897 81.4255 73.3727 81.1949 73.1388C80.9644 72.9049 80.8491 72.5272 80.8491 72.0057V63.0176C80.8385 62.7257 80.8913 62.435 81.004 62.1656C81.1003 61.9522 81.2711 61.7813 81.4843 61.685C81.7506 61.5754 82.0371 61.5238 82.3248 61.5336H88.721C89.1077 61.5336 89.3934 61.6189 89.5807 61.7907C89.6739 61.8756 89.7473 61.9798 89.7961 62.096C89.8448 62.2122 89.8676 62.3377 89.8629 62.4636C89.8681 62.5909 89.8456 62.7177 89.7969 62.8354C89.7481 62.953 89.6744 63.0587 89.5807 63.1449C89.3934 63.3156 89.1077 63.4009 88.721 63.4009Z" fill="white"/>
<path d="M104.398 69.9016C104.408 70.594 104.214 71.274 103.84 71.8566C103.439 72.4575 102.871 72.9281 102.206 73.2109C101.486 73.5361 100.635 73.6991 99.6548 73.6999C98.4757 73.6999 97.5031 73.4768 96.737 73.0306C96.2005 72.7148 95.7475 72.2747 95.4163 71.7473C95.0777 71.2114 94.908 70.6907 94.9072 70.1852C94.9058 70.0434 94.933 69.9028 94.987 69.7718C95.041 69.6407 95.1208 69.5218 95.2216 69.4222C95.3223 69.3226 95.4421 69.2442 95.5737 69.1918C95.7054 69.1393 95.8462 69.1139 95.9878 69.117C96.2269 69.1098 96.4595 69.1959 96.6362 69.3573C96.8386 69.5608 96.9929 69.8072 97.0877 70.0783C97.2163 70.4136 97.3818 70.7336 97.5812 71.0323C97.7735 71.3016 98.0297 71.5188 98.3268 71.6644C98.7224 71.8457 99.1552 71.9309 99.5899 71.9131C100.31 71.9131 100.893 71.7461 101.338 71.412C101.783 71.078 102.007 70.6606 102.011 70.16C102.018 69.9838 101.989 69.808 101.928 69.6429C101.866 69.4778 101.771 69.3268 101.65 69.1987C101.387 68.9383 101.065 68.744 100.713 68.6315C100.331 68.5001 99.8197 68.3607 99.1793 68.2133C98.4368 68.0522 97.7127 67.8158 97.018 67.508C96.4721 67.265 95.9976 66.886 95.6396 66.4073C95.301 65.9427 95.1313 65.3647 95.1305 64.6734C95.1213 64.0469 95.3095 63.4335 95.6684 62.9202C96.0622 62.3828 96.6049 61.9729 97.2293 61.7414C97.9959 61.4509 98.8113 61.311 99.6308 61.3293C100.276 61.3161 100.919 61.4086 101.534 61.6032C102.02 61.7569 102.472 62.0015 102.867 62.3242C103.187 62.5848 103.45 62.9083 103.64 63.2747C103.794 63.575 103.876 63.907 103.88 64.2444C103.88 64.5331 103.771 64.8111 103.575 65.0231C103.482 65.134 103.365 65.2227 103.233 65.2828C103.101 65.3429 102.958 65.3728 102.813 65.3703C102.583 65.3866 102.356 65.3119 102.181 65.1624C101.992 64.9598 101.834 64.7302 101.713 64.4811C101.53 64.0772 101.263 63.7171 100.93 63.4249C100.627 63.1726 100.137 63.0464 99.4627 63.0464C98.8383 63.0464 98.3344 63.1834 97.951 63.4573C97.5675 63.7313 97.3766 64.0634 97.3782 64.4535C97.3728 64.6762 97.4417 64.8944 97.5739 65.0735C97.7188 65.26 97.9023 65.4129 98.1119 65.5217C98.3318 65.6437 98.564 65.742 98.8047 65.8149C99.0376 65.8854 99.4231 65.9887 99.961 66.1249C100.58 66.2672 101.19 66.4417 101.791 66.6476C102.286 66.8121 102.755 67.0455 103.185 67.341C103.563 67.6065 103.87 67.9604 104.081 68.372C104.307 68.8491 104.416 69.3737 104.398 69.9016Z" fill="white"/>
<path d="M118.871 69.9016C118.881 70.5944 118.686 71.2746 118.31 71.8566C117.909 72.4578 117.341 72.9285 116.676 73.2109C115.956 73.5361 115.106 73.6991 114.126 73.6999C112.947 73.6999 111.974 73.4768 111.208 73.0306C110.671 72.7152 110.218 72.275 109.887 71.7473C109.548 71.2114 109.378 70.6907 109.378 70.1852C109.377 70.0434 109.404 69.9027 109.458 69.7716C109.512 69.6404 109.591 69.5215 109.692 69.4218C109.793 69.3221 109.913 69.2438 110.045 69.1914C110.176 69.139 110.317 69.1137 110.459 69.117C110.698 69.1097 110.93 69.1959 111.106 69.3573C111.309 69.5607 111.464 69.8071 111.559 70.0782C111.686 70.4138 111.852 70.7338 112.051 71.0323C112.244 71.302 112.5 71.5192 112.798 71.6644C113.118 71.8302 113.539 71.9131 114.061 71.9131C114.781 71.9131 115.364 71.7461 115.808 71.412C116.252 71.078 116.476 70.6606 116.48 70.16C116.488 69.9838 116.459 69.808 116.397 69.6429C116.336 69.4778 116.241 69.3268 116.12 69.1987C115.857 68.9381 115.536 68.7437 115.184 68.6315C114.801 68.5017 114.289 68.3631 113.647 68.2157C112.904 68.0544 112.18 67.8181 111.485 67.5104C110.94 67.2673 110.466 66.8884 110.108 66.4097C109.769 65.9451 109.599 65.3671 109.599 64.6758C109.589 64.0493 109.778 63.4357 110.137 62.9226C110.531 62.3851 111.073 61.9752 111.698 61.7438C112.465 61.4536 113.28 61.3137 114.099 61.3317C114.745 61.3185 115.387 61.411 116.003 61.6057C116.488 61.7593 116.94 62.0039 117.334 62.3266C117.654 62.5875 117.918 62.9109 118.109 63.2771C118.262 63.5774 118.345 63.9093 118.349 64.2468C118.349 64.5357 118.239 64.8139 118.043 65.0255C117.95 65.1365 117.833 65.2253 117.701 65.2854C117.57 65.3455 117.426 65.3753 117.281 65.3727C117.052 65.3891 116.825 65.3144 116.65 65.1648C116.46 64.9623 116.302 64.7327 116.18 64.4835C115.998 64.0797 115.731 63.7195 115.399 63.4273C115.094 63.175 114.605 63.0488 113.931 63.0488C113.307 63.0488 112.803 63.1858 112.42 63.4597C112.036 63.7337 111.845 64.0642 111.845 64.4511C111.84 64.6737 111.908 64.8917 112.04 65.0711C112.185 65.2574 112.369 65.4102 112.578 65.5193C112.798 65.6411 113.03 65.7394 113.271 65.8125C113.505 65.883 113.891 65.9863 114.428 66.1225C115.047 66.2648 115.658 66.4392 116.258 66.6452C116.753 66.8099 117.222 67.0433 117.651 67.3386C118.029 67.6052 118.337 67.9599 118.547 68.372C118.776 68.8485 118.887 69.3731 118.871 69.9016Z" fill="white"/>
<path d="M135.801 71.6872L133.88 64.0702V72.3241C133.88 72.7807 133.779 73.1232 133.575 73.3515C133.47 73.4592 133.345 73.5448 133.207 73.6033C133.069 73.6618 132.92 73.6919 132.77 73.6919C132.62 73.6919 132.471 73.6618 132.333 73.6033C132.195 73.5448 132.069 73.4592 131.965 73.3515C131.758 73.1268 131.656 72.7819 131.656 72.3205V62.8638C131.656 62.3414 131.792 61.9894 132.063 61.8075C132.335 61.6249 132.702 61.5336 133.163 61.5336H133.914C134.364 61.5336 134.692 61.5744 134.895 61.6537C134.995 61.6937 135.087 61.7531 135.165 61.8285C135.242 61.904 135.304 61.994 135.347 62.0935C135.486 62.4293 135.598 62.7757 135.681 63.1293L137.417 69.6793L139.163 63.1317C139.247 62.7782 139.359 62.4319 139.497 62.0959C139.584 61.8952 139.747 61.7371 139.95 61.6561C140.154 61.5744 140.48 61.536 140.932 61.536H141.685C142.147 61.536 142.513 61.6273 142.785 61.8099C143.056 61.9926 143.192 62.3447 143.193 62.8662V72.3265C143.193 72.7831 143.091 73.1256 142.887 73.3539C142.784 73.4677 142.657 73.5575 142.515 73.6167C142.374 73.6759 142.221 73.7031 142.068 73.6963C141.919 73.7005 141.771 73.6719 141.635 73.6128C141.498 73.5536 141.376 73.4652 141.278 73.3539C141.071 73.1256 140.968 72.7831 140.968 72.3265V64.0702L139.047 71.6872C138.922 72.1823 138.82 72.5456 138.74 72.7771C138.653 73.0221 138.502 73.24 138.305 73.4091C138.057 73.6113 137.743 73.7129 137.425 73.6939C137.172 73.7029 136.922 73.6391 136.704 73.5101C136.515 73.3953 136.358 73.234 136.248 73.0414C136.135 72.8428 136.049 72.6303 135.991 72.4094C135.932 72.1787 135.869 71.938 135.801 71.6872Z" fill="white"/>
<path d="M156.886 63.4009H151.433V66.3376H156.453C156.823 66.3376 157.098 66.4205 157.281 66.5864C157.371 66.6692 157.443 66.7708 157.49 66.8842C157.537 66.9975 157.558 67.1198 157.553 67.2424C157.558 67.3659 157.536 67.489 157.49 67.6035C157.444 67.718 157.374 67.8214 157.284 67.9069C157.105 68.0784 156.828 68.1641 156.453 68.1641H151.433V71.5659H157.077C157.456 71.5659 157.743 71.654 157.936 71.8302C158.033 71.92 158.108 72.0295 158.158 72.1512C158.208 72.273 158.231 72.4041 158.226 72.5356C158.23 72.6646 158.207 72.7931 158.157 72.9122C158.107 73.0312 158.032 73.1381 157.936 73.2253C157.743 73.4023 157.457 73.4905 157.077 73.4897H150.499C149.972 73.4897 149.593 73.3727 149.362 73.1388C149.131 72.9049 149.016 72.5272 149.016 72.0057V63.0176C149.006 62.7257 149.058 62.435 149.171 62.1656C149.267 61.9522 149.438 61.7813 149.651 61.685C149.918 61.5754 150.204 61.5238 150.492 61.5336H156.882C157.268 61.5336 157.555 61.6193 157.742 61.7907C157.835 61.8758 157.908 61.98 157.956 62.0962C158.005 62.2124 158.028 62.3378 158.023 62.4636C158.028 62.5908 158.006 62.7175 157.957 62.8352C157.909 62.9528 157.835 63.0585 157.742 63.1449C157.557 63.3156 157.272 63.4009 156.886 63.4009Z" fill="white"/>
<path d="M164.979 61.5336H168.132C168.842 61.5216 169.551 61.5983 170.243 61.7619C170.835 61.917 171.382 62.2107 171.84 62.6186C173.084 63.6841 173.707 65.3042 173.707 67.4792C173.712 68.1392 173.65 68.798 173.519 69.445C173.406 70.0047 173.211 70.5448 172.941 71.048C172.678 71.5254 172.34 71.9565 171.938 72.3241C171.625 72.6074 171.27 72.8412 170.886 73.0174C170.496 73.1944 170.084 73.3177 169.66 73.3839C169.171 73.4584 168.676 73.4938 168.181 73.4896H165.027C164.587 73.4896 164.256 73.4232 164.032 73.2902C163.819 73.1677 163.662 72.9655 163.597 72.7278C163.521 72.4198 163.486 72.1029 163.495 71.7857V63.0139C163.495 62.4924 163.611 62.1147 163.845 61.8808C164.079 61.6469 164.457 61.5312 164.979 61.5336ZM165.915 63.4501V71.5659H167.749C168.151 71.5659 168.469 71.555 168.695 71.5322C168.937 71.5074 169.175 71.4529 169.403 71.37C169.637 71.2894 169.852 71.1646 170.038 71.0023C170.849 70.3174 171.254 69.1378 171.254 67.4635C171.254 66.2835 171.076 65.4 170.719 64.8128C170.363 64.2256 169.923 63.8515 169.398 63.6905C168.783 63.5179 168.146 63.4369 167.507 63.4501H165.915Z" fill="white"/>
<path d="M179.274 72.2171V62.7965C179.274 62.3074 179.385 61.9409 179.608 61.6958C179.717 61.5752 179.85 61.4798 179.999 61.4163C180.148 61.3528 180.31 61.3227 180.472 61.3281C180.636 61.3213 180.8 61.3499 180.953 61.4121C181.106 61.4743 181.243 61.5686 181.356 61.6886C181.582 61.9289 181.695 62.297 181.695 62.7929V72.2171C181.695 72.7106 181.582 73.0803 181.356 73.3262C181.243 73.4463 181.106 73.5407 180.953 73.6029C180.801 73.6651 180.636 73.6937 180.472 73.6867C180.31 73.691 180.149 73.66 180.001 73.5959C179.852 73.5318 179.72 73.4361 179.612 73.3154C179.388 73.0727 179.275 72.7066 179.274 72.2171Z" fill="white"/>
<path d="M195.383 72.1366L194.812 70.6358H189.954L189.383 72.1691C189.16 72.7675 188.97 73.1712 188.813 73.3803C188.656 73.5894 188.398 73.6939 188.038 73.6939C187.889 73.6941 187.74 73.6646 187.602 73.6073C187.463 73.55 187.338 73.4659 187.232 73.3599C187.123 73.2651 187.036 73.1487 186.976 73.018C186.915 72.8874 186.883 72.7456 186.881 72.6016C186.883 72.4299 186.91 72.2593 186.963 72.0958C187.017 71.9211 187.107 71.6808 187.232 71.3748L190.287 63.61C190.375 63.3881 190.48 63.1205 190.602 62.8073C190.704 62.5339 190.835 62.2724 190.993 62.0274C191.133 61.8197 191.32 61.648 191.539 61.5264C191.801 61.3995 192.088 61.3335 192.379 61.3335C192.67 61.3335 192.958 61.3995 193.22 61.5264C193.437 61.6464 193.624 61.8155 193.766 62.0202C193.906 62.2228 194.023 62.4399 194.117 62.6679C194.211 62.8998 194.333 63.2074 194.477 63.5943L197.599 71.3087C197.839 71.8959 197.959 72.3229 197.959 72.5896C197.956 72.7336 197.924 72.8755 197.864 73.0067C197.805 73.1379 197.719 73.2556 197.613 73.3527C197.504 73.4648 197.373 73.5535 197.229 73.613C197.084 73.6725 196.929 73.7017 196.772 73.6987C196.604 73.7033 196.436 73.6683 196.284 73.5966C196.15 73.531 196.033 73.4362 195.942 73.319C195.821 73.1528 195.721 72.9724 195.644 72.7819C195.55 72.5344 195.459 72.3217 195.383 72.1366ZM190.591 68.8166H194.156L192.355 63.8827L190.591 68.8166Z" fill="white"/>
<path d="M74.029 77.9344C73.7985 78.1563 73.4471 78.2677 72.9748 78.2685H72.1968V79.9603H71.6672V75.9085H72.9748C73.4311 75.9085 73.7793 76.019 74.017 76.2389C74.2426 76.4625 74.3706 76.7665 74.3728 77.0842C74.3751 77.4019 74.2515 77.7077 74.029 77.9344ZM73.622 77.6496C73.6945 77.5773 73.7508 77.4904 73.7875 77.3948C73.8241 77.2991 73.8401 77.1968 73.8345 77.0945C73.8411 76.9906 73.8259 76.8865 73.7899 76.7888C73.7539 76.6912 73.698 76.6021 73.6256 76.5273C73.4863 76.3935 73.2694 76.3267 72.9748 76.3267H72.1968V77.8503H72.9748C73.2654 77.8503 73.4839 77.783 73.622 77.6496Z" fill="#FFCC1C"/>
<path d="M77.7441 79.9603L76.7835 78.3033H76.1448V79.9603H75.6165V75.9085H76.924C77.1908 75.9002 77.4558 75.9536 77.6985 76.0647C77.8973 76.155 78.0646 76.3027 78.1788 76.4889C78.2849 76.6745 78.3388 76.8855 78.3349 77.0993C78.3388 77.3654 78.2544 77.6254 78.0947 77.8383C77.9143 78.0628 77.6581 78.2136 77.3743 78.2625L78.3913 79.9603H77.7441ZM76.14 77.8791H76.9192C77.0354 77.8879 77.1522 77.8736 77.2628 77.8371C77.3735 77.8006 77.4758 77.7426 77.564 77.6665C77.6367 77.5916 77.6933 77.5027 77.7302 77.4052C77.7672 77.3076 77.7838 77.2035 77.7789 77.0993C77.7852 76.995 77.7698 76.8905 77.7337 76.7924C77.6975 76.6944 77.6414 76.6049 77.5688 76.5297C77.4295 76.3936 77.213 76.3259 76.9192 76.3267H76.14V77.8791Z" fill="#FFCC1C"/>
<path d="M80.2524 76.3206V77.7097H81.7281V78.1171H80.2524V79.547H81.9022V79.9663H79.7277V75.9025H81.9058V76.3206H80.2524Z" fill="#FFCC1C"/>
<path d="M83.3551 76.8638C83.5261 76.5552 83.7781 76.2992 84.0839 76.1236C84.3955 75.9437 84.7497 75.8511 85.1093 75.8556C85.5173 75.8466 85.919 75.9578 86.2644 76.1752C86.5961 76.392 86.8488 76.7102 86.9849 77.0825H86.3521C86.2494 76.8562 86.0823 76.6652 85.8718 76.5333C85.6424 76.3987 85.3799 76.3312 85.1141 76.3387C84.8476 76.3344 84.5847 76.4016 84.3529 76.5333C84.1269 76.6646 83.9435 76.8581 83.8246 77.0909C83.6921 77.3511 83.6261 77.6401 83.6325 77.932C83.6252 78.2241 83.6913 78.5132 83.8246 78.7731C83.944 79.005 84.1273 79.1977 84.3529 79.3283C84.5847 79.46 84.8476 79.5272 85.1141 79.5229C85.3796 79.5305 85.642 79.4639 85.8718 79.3307C86.0824 79.2006 86.2496 79.0107 86.3521 78.7852H86.9849C86.8478 79.1543 86.5951 79.4692 86.2644 79.6828C85.9185 79.8989 85.517 80.0092 85.1093 80C84.75 80.0042 84.3961 79.9125 84.0839 79.7344C83.7782 79.5614 83.526 79.3074 83.3551 79.0002C83.1794 78.6725 83.0874 78.3064 83.0874 77.9344C83.0874 77.5625 83.1794 77.1963 83.3551 76.8686V76.8638Z" fill="#FFCC1C"/>
<path d="M88.8784 75.9085V79.9603H88.3501V75.9085H88.8784Z" fill="#FFCC1C"/>
<path d="M90.9255 79.8582C90.7278 79.7733 90.5566 79.6367 90.4296 79.4629C90.3086 79.2922 90.2436 79.0882 90.2435 78.8789H90.8067C90.8233 79.0668 90.9088 79.2419 91.0468 79.3704C91.2128 79.5135 91.4286 79.5851 91.6472 79.5698C91.8618 79.5811 92.073 79.5116 92.2391 79.3752C92.3106 79.3142 92.3676 79.238 92.4058 79.1521C92.4441 79.0662 92.4626 78.9729 92.4601 78.8789C92.4662 78.7413 92.4209 78.6063 92.3328 78.5004C92.2456 78.4024 92.136 78.327 92.0134 78.2805C91.8437 78.2164 91.6705 78.1618 91.4947 78.1171C91.2757 78.0634 91.0609 77.9935 90.8523 77.908C90.6888 77.8358 90.5469 77.7224 90.4404 77.5787C90.3179 77.4032 90.2575 77.1917 90.2687 76.9779C90.2651 76.7695 90.3241 76.5648 90.438 76.3903C90.5548 76.2161 90.719 76.0789 90.9111 75.995C91.1317 75.8986 91.3705 75.8511 91.6111 75.8556C91.9451 75.8413 92.2739 75.9418 92.5429 76.1404C92.6605 76.2304 92.7578 76.3443 92.8283 76.4745C92.8989 76.6048 92.9412 76.7485 92.9523 76.8962H92.3724C92.3515 76.728 92.2652 76.5747 92.1323 76.4696C91.9688 76.3437 91.7655 76.2806 91.5595 76.2918C91.3643 76.2831 91.1726 76.345 91.0192 76.466C90.949 76.5269 90.8936 76.6031 90.8574 76.6887C90.8212 76.7743 90.805 76.8671 90.8103 76.9599C90.8034 77.0909 90.8463 77.2197 90.9303 77.3204C91.015 77.4146 91.1207 77.4875 91.2389 77.5331C91.359 77.5811 91.5319 77.6364 91.7528 77.6989C91.9726 77.756 92.1881 77.8287 92.3976 77.9164C92.5623 77.9905 92.7059 78.1045 92.8155 78.248C92.9388 78.4233 93.0001 78.6348 92.9896 78.8488C92.9901 79.046 92.9361 79.2394 92.8335 79.4076C92.7203 79.5889 92.5596 79.7356 92.3688 79.8318C92.1454 79.9435 91.8981 79.9992 91.6484 79.994C91.4005 80.001 91.154 79.9547 90.9255 79.8582Z" fill="#FFCC1C"/>
<path d="M94.8784 75.9085V79.9603H94.3501V75.9085H94.8784Z" fill="#FFCC1C"/>
<path d="M97.167 79.7356C96.8588 79.5621 96.6046 79.3068 96.4321 78.9978C96.2548 78.6702 96.162 78.3034 96.162 77.9308C96.162 77.5582 96.2548 77.1914 96.4321 76.8638C96.6054 76.5555 96.8595 76.3005 97.167 76.126C97.4831 75.9526 97.8378 75.8616 98.1984 75.8616C98.5589 75.8616 98.9136 75.9526 99.2298 76.126C99.5363 76.2994 99.7892 76.5538 99.961 76.8614C100.137 77.1904 100.229 77.5577 100.229 77.9308C100.229 78.3039 100.137 78.6712 99.961 79.0003C99.79 79.3084 99.5368 79.563 99.2298 79.7356C98.9136 79.9091 98.5589 80 98.1984 80C97.8378 80 97.4831 79.9091 97.167 79.7356ZM98.9596 79.3259C99.1865 79.1939 99.3717 79.0007 99.4939 78.7683C99.6286 78.5088 99.6955 78.2195 99.6885 77.9272C99.6947 77.635 99.6278 77.3459 99.4939 77.0861C99.3724 76.8532 99.187 76.6598 98.9596 76.5285C98.7251 76.4007 98.4624 76.3338 98.1954 76.3338C97.9284 76.3338 97.6656 76.4007 97.4311 76.5285C97.2037 76.6598 97.0184 76.8532 96.8968 77.0861C96.763 77.3459 96.6961 77.635 96.7023 77.9272C96.6953 78.2195 96.7622 78.5088 96.8968 78.7683C97.0191 79.0007 97.2042 79.1939 97.4311 79.3259C97.6649 79.4559 97.9279 79.5242 98.1954 79.5242C98.4628 79.5242 98.7259 79.4559 98.9596 79.3259Z" fill="#FFCC1C"/>
<path d="M104.689 79.9603H104.161L102.035 76.734V79.9603H101.506V75.9025H102.035L104.161 79.1228V75.9025H104.689V79.9603Z" fill="#FFCC1C"/>
<path d="M108.724 78.5268C108.657 78.4617 108.604 78.3836 108.568 78.2972C108.533 78.2108 108.515 78.118 108.517 78.0245C108.515 77.93 108.532 77.836 108.568 77.7484C108.603 77.6607 108.656 77.5813 108.724 77.5151C108.789 77.4484 108.867 77.3958 108.954 77.3604C109.04 77.3251 109.132 77.3078 109.226 77.3096C109.32 77.3075 109.415 77.3247 109.502 77.36C109.59 77.3953 109.67 77.4481 109.737 77.5151C109.805 77.581 109.859 77.6603 109.895 77.748C109.931 77.8356 109.948 77.9298 109.946 78.0245C109.948 78.1182 109.93 78.2111 109.894 78.2975C109.858 78.384 109.805 78.462 109.737 78.5268C109.67 78.5942 109.591 78.6473 109.503 78.6828C109.415 78.7183 109.321 78.7356 109.226 78.7335C109.132 78.7353 109.04 78.7179 108.953 78.6824C108.867 78.6468 108.789 78.5939 108.724 78.5268Z" fill="#FFCC1C"/>
<path d="M114.296 76.3206V77.7097H115.772V78.1171H114.296V79.547H115.946V79.9663H113.768V75.9025H115.946V76.3206H114.296Z" fill="#FFCC1C"/>
<path d="M117.858 79.553H119.275V79.9603H117.329V75.9085H117.858V79.553Z" fill="#FFCC1C"/>
<path d="M120.947 76.3206V77.7097H122.423V78.1171H120.947V79.547H122.593V79.9663H120.415V75.9025H122.593V76.3206H120.947Z" fill="#FFCC1C"/>
<path d="M124.052 76.8638C124.226 76.5555 124.48 76.3005 124.787 76.126C125.1 75.9487 125.455 75.8575 125.815 75.8616C126.218 75.8544 126.615 75.9655 126.957 76.1813C127.288 76.3957 127.541 76.712 127.677 77.0825H127.044C126.94 76.8548 126.77 76.6636 126.556 76.5333C126.331 76.4002 126.074 76.3328 125.812 76.3387C125.545 76.3349 125.282 76.402 125.049 76.5333C124.821 76.6643 124.636 76.8578 124.514 77.0909C124.381 77.3507 124.314 77.6398 124.32 77.932C124.313 78.2243 124.38 78.5137 124.514 78.7732C124.636 79.0054 124.821 79.198 125.049 79.3283C125.282 79.4596 125.545 79.5268 125.812 79.523C126.174 79.5362 126.527 79.4068 126.795 79.1625C127.057 78.9088 127.214 78.5656 127.235 78.2012H125.622V77.783H127.8V78.1892C127.771 78.5156 127.663 78.83 127.485 79.1048C127.31 79.3797 127.068 79.6058 126.783 79.7621C126.485 79.9244 126.151 80.0072 125.812 80.0024C125.452 80.0062 125.098 79.9145 124.785 79.7369C124.477 79.5638 124.223 79.3099 124.05 79.0027C123.873 78.6754 123.78 78.3091 123.78 77.9368C123.78 77.5646 123.873 77.1982 124.05 76.871L124.052 76.8638Z" fill="#FFCC1C"/>
<path d="M131.479 79.0591H129.714L129.388 79.9603H128.83L130.294 75.9313H130.903L132.361 79.9603H131.804L131.479 79.0591ZM131.333 78.6458L130.596 76.5826L129.858 78.6458H131.333Z" fill="#FFCC1C"/>
<path d="M136.762 79.9603H136.233L134.108 76.734V79.9603H133.579V75.9025H134.108L136.233 79.1228V75.9025H136.762V79.9603Z" fill="#FFCC1C"/>
<path d="M138.309 76.8638C138.481 76.5554 138.733 76.2996 139.038 76.1236C139.35 75.9438 139.704 75.8513 140.064 75.8556C140.472 75.8465 140.874 75.9576 141.22 76.1753C141.552 76.392 141.804 76.7102 141.94 77.0825H141.306C141.204 76.8559 141.037 76.6648 140.826 76.5333C140.597 76.3987 140.334 76.3313 140.068 76.3387C139.802 76.3345 139.539 76.4017 139.307 76.5333C139.081 76.6646 138.898 76.8581 138.779 77.0909C138.647 77.3513 138.581 77.6401 138.587 77.932C138.58 78.224 138.646 78.513 138.779 78.7731C138.898 79.005 139.082 79.1977 139.307 79.3283C139.539 79.4599 139.802 79.5271 140.068 79.523C140.334 79.5305 140.596 79.4639 140.826 79.3307C141.037 79.2009 141.204 79.0109 141.306 78.7852H141.94C141.803 79.1543 141.551 79.4692 141.22 79.6828C140.874 79.8991 140.472 80.0094 140.064 80C139.704 80.004 139.351 79.9124 139.038 79.7344C138.733 79.561 138.481 79.307 138.309 79.0003C138.134 78.6725 138.042 78.3064 138.042 77.9344C138.042 77.5625 138.134 77.1963 138.309 76.8686V76.8638Z" fill="#FFCC1C"/>
<path d="M143.834 76.3206V77.7097H145.308V78.1171H143.834V79.547H145.483V79.9663H143.304V75.9025H145.483V76.3206H143.834Z" fill="#FFCC1C"/>
<path d="M149.419 78.5268C149.352 78.4617 149.299 78.3836 149.263 78.2972C149.228 78.2108 149.21 78.118 149.212 78.0245C149.21 77.93 149.227 77.836 149.262 77.7484C149.298 77.6607 149.351 77.5813 149.419 77.5151C149.484 77.4484 149.562 77.3958 149.648 77.3604C149.735 77.3251 149.827 77.3078 149.92 77.3096C150.015 77.3075 150.109 77.3247 150.197 77.36C150.285 77.3953 150.365 77.4481 150.432 77.5151C150.5 77.581 150.554 77.6603 150.59 77.748C150.625 77.8356 150.643 77.9298 150.641 78.0245C150.643 78.1182 150.625 78.2111 150.589 78.2975C150.553 78.384 150.499 78.462 150.432 78.5268C150.365 78.5942 150.285 78.6473 150.197 78.6828C150.109 78.7183 150.015 78.7356 149.92 78.7335C149.827 78.7353 149.734 78.7179 149.648 78.6824C149.562 78.6468 149.484 78.5939 149.419 78.5268Z" fill="#FFCC1C"/>
<path d="M154.991 75.9085V79.9603H154.463V75.9085H154.991Z" fill="#FFCC1C"/>
<path d="M160.579 75.9421V79.9651H160.056V76.9611L158.719 79.9651H158.348L157.006 76.9707V79.9651H156.478V75.9421H157.047L158.534 79.267L160.016 75.9421H160.579Z" fill="#FFCC1C"/>
<path d="M164.416 77.9344C164.187 78.1563 163.835 78.2677 163.361 78.2685H162.583V79.9603H162.055V75.9085H163.361C163.819 75.9085 164.166 76.019 164.405 76.2389C164.63 76.4627 164.758 76.7667 164.76 77.0844C164.762 77.4022 164.638 77.7078 164.416 77.9344ZM164.01 77.6496C164.082 77.5772 164.138 77.4903 164.175 77.3946C164.211 77.299 164.227 77.1967 164.221 77.0945C164.228 76.9906 164.212 76.8865 164.176 76.7888C164.14 76.6912 164.084 76.6021 164.012 76.5273C163.873 76.3939 163.652 76.3267 163.361 76.3267H162.583V77.8503H163.361C163.652 77.8503 163.868 77.7834 164.01 77.6496Z" fill="#FFCC1C"/>
<path d="M168.392 79.0591H166.626L166.301 79.9603H165.744L167.207 75.9313H167.817L169.275 79.9603H168.718L168.392 79.0591ZM168.247 78.6458L167.51 76.5826L166.771 78.6458H168.247Z" fill="#FFCC1C"/>
<path d="M170.564 76.8638C170.736 76.5554 170.988 76.2996 171.293 76.1236C171.605 75.9438 171.959 75.8513 172.319 75.8556C172.727 75.8465 173.129 75.9576 173.475 76.1753C173.807 76.392 174.059 76.7102 174.195 77.0825H173.561C173.459 76.8559 173.292 76.6648 173.081 76.5333C172.852 76.3986 172.589 76.3311 172.323 76.3387C172.057 76.3345 171.794 76.4017 171.562 76.5333C171.337 76.6649 171.153 76.8584 171.034 77.0909C170.902 77.3513 170.836 77.6401 170.842 77.932C170.835 78.224 170.901 78.513 171.034 78.7731C171.154 79.0047 171.337 79.1973 171.562 79.3283C171.794 79.4599 172.057 79.5271 172.323 79.523C172.589 79.5307 172.851 79.4641 173.081 79.3307C173.292 79.2009 173.459 79.0109 173.561 78.7852H174.195C174.058 79.1543 173.806 79.4692 173.475 79.6828C173.129 79.8991 172.727 80.0094 172.319 80C171.959 80.004 171.605 79.9124 171.293 79.7344C170.988 79.561 170.736 79.307 170.564 79.0003C170.389 78.6723 170.298 78.3062 170.298 77.9344C170.298 77.5626 170.389 77.1966 170.564 76.8686V76.8638Z" fill="#FFCC1C"/>
<path d="M178.052 75.9085V76.3207H176.949V79.9603H176.419V76.3207H175.305V75.9085H178.052Z" fill="#FFCC1C"/>
</g>
<defs>
<clipPath id="clip0_369_136">
<rect width="249" height="80" fill="white"/>
</clipPath>
</defs>
</svg>
