<svg width="30" height="30" viewBox="0 0 30 30" fill="none" xmlns="http://www.w3.org/2000/svg">
<circle cx="15" cy="15" r="15" fill="#D1B271"/>
<g clip-path="url(#clip0_448_39)">
<path d="M15.001 8C11.135 8 8 11.0156 8 14.7331C8 16.1558 8.4597 17.4746 9.24242 18.5628C9.32732 18.6812 9.35838 18.8307 9.32111 18.972L8.67298 21.3977C8.57773 21.7549 8.90282 22.081 9.25899 21.9855L12.5079 21.1132C12.597 21.0883 12.6901 21.0924 12.7771 21.1215C13.4749 21.3458 14.2245 21.4704 15.001 21.4704C18.867 21.4704 22.0021 18.4548 22.0021 14.7373C22.0021 11.0197 18.867 8 15.001 8Z" fill="white"/>
</g>
<defs>
<clipPath id="clip0_448_39">
<rect width="14" height="14" fill="white" transform="translate(8 8)"/>
</clipPath>
</defs>
</svg>
